<svg xmlns="http://www.w3.org/2000/svg" xmlns:xlink="http://www.w3.org/1999/xlink" width="1920" zoomAndPan="magnify" viewBox="0 0 1440 809.999993" height="1080" preserveAspectRatio="xMidYMid meet" version="1.0"><defs><g/><clipPath id="0b194e9453"><path d="M 24.203125 166 L 323 166 L 323 577 L 24.203125 577 Z M 24.203125 166 " clip-rule="nonzero"/></clipPath><clipPath id="086bbd554d"><path d="M 353 114.585938 L 368.402344 114.585938 L 368.402344 697.5 L 353 697.5 Z M 353 114.585938 " clip-rule="nonzero"/></clipPath><clipPath id="4324cd9f21"><path d="M 24.203125 293.785156 L 322.535156 293.785156 L 322.535156 654.710938 L 24.203125 654.710938 Z M 24.203125 293.785156 " clip-rule="nonzero"/></clipPath></defs><g clip-path="url(#0b194e9453)"><path fill="#000000" d="M 24.421875 272.503906 L 24.421875 538.113281 C 24.421875 558.949219 41.457031 576.003906 62.265625 576.003906 L 194.136719 576.003906 C 173.199219 548.683594 160.765625 514.503906 160.765625 477.425781 C 160.765625 387.910156 233.238281 315.351562 322.648438 315.351562 L 322.648438 166.394531 L 264.480469 166.394531 C 251.78125 166.394531 240.035156 173.183594 233.6875 184.191406 L 204.609375 234.625 L 62.265625 234.625 C 41.457031 234.625 24.421875 251.667969 24.421875 272.503906 Z M 68.78125 272.964844 C 68.78125 269.941406 71.257812 267.476562 74.265625 267.476562 L 160.261719 267.476562 C 163.28125 267.476562 165.746094 269.953125 165.746094 272.964844 L 165.746094 294.949219 C 165.746094 297.972656 163.269531 300.4375 160.261719 300.4375 L 74.28125 300.4375 C 71.257812 300.4375 68.796875 297.957031 68.796875 294.949219 L 68.796875 272.964844 Z M 68.78125 272.964844 " fill-opacity="1" fill-rule="nonzero"/></g><path fill="#000000" d="M 306.691406 371.175781 C 301.710938 371.90625 296.84375 372.984375 292.101562 374.382812 C 305.277344 383.121094 313.976562 398.101562 313.976562 415.117188 C 313.976562 442.085938 292.144531 463.941406 265.210938 463.941406 C 247.113281 463.941406 231.324219 454.058594 222.902344 439.394531 C 220.457031 446.089844 218.664062 453.117188 217.601562 460.371094 C 208.035156 526.183594 258.746094 582.652344 322.632812 582.652344 L 322.632812 613.515625 C 286.035156 613.515625 251.628906 599.246094 225.757812 573.34375 C 199.882812 547.4375 185.632812 512.992188 185.632812 476.347656 C 185.632812 439.703125 199.882812 405.257812 225.757812 379.355469 C 251.628906 353.449219 286.035156 339.179688 322.632812 339.179688 L 322.632812 370.042969 C 317.402344 370.015625 312.074219 370.394531 306.691406 371.175781 Z M 306.691406 371.175781 " fill-opacity="1" fill-rule="nonzero"/><g clip-path="url(#086bbd554d)"><path fill="#000000" d="M 353.039062 114.585938 L 368.199219 114.585938 L 368.199219 697.542969 L 353.039062 697.542969 Z M 353.039062 114.585938 " fill-opacity="1" fill-rule="nonzero"/></g><g clip-path="url(#4324cd9f21)"><path fill="#000000" d="M 24.203125 293.785156 L 322.535156 293.785156 L 322.535156 655.042969 L 24.203125 655.042969 Z M 24.203125 293.785156 " fill-opacity="1" fill-rule="nonzero"/></g><g fill="#000000" fill-opacity="1"><g transform="translate(406.241674, 562.013612)"><g><path d="M 104.03125 -186.734375 C 120.925781 -186.734375 135.597656 -183.929688 148.046875 -178.328125 C 160.503906 -172.722656 170.109375 -164.71875 176.859375 -154.3125 C 183.617188 -143.914062 187 -131.691406 187 -117.640625 C 187 -103.585938 183.617188 -91.40625 176.859375 -81.09375 C 170.109375 -70.78125 160.503906 -62.820312 148.046875 -57.21875 C 135.597656 -51.613281 120.925781 -48.8125 104.03125 -48.8125 L 71.5 -48.8125 L 71.5 0 L 18.671875 0 L 18.671875 -186.734375 Z M 100.84375 -90.4375 C 111.6875 -90.4375 119.863281 -92.789062 125.375 -97.5 C 130.894531 -102.21875 133.65625 -108.929688 133.65625 -117.640625 C 133.65625 -126.359375 130.894531 -133.117188 125.375 -137.921875 C 119.863281 -142.722656 111.6875 -145.125 100.84375 -145.125 L 71.5 -145.125 L 71.5 -90.4375 Z M 100.84375 -90.4375 "/></g></g></g><g fill="#000000" fill-opacity="1"><g transform="translate(576.708401, 562.013612)"><g><path d="M 64.5625 -127.25 C 69.71875 -133.832031 76.429688 -138.765625 84.703125 -142.046875 C 92.972656 -145.335938 102.441406 -146.984375 113.109375 -146.984375 L 113.109375 -101.375 C 108.484375 -101.90625 104.660156 -102.171875 101.640625 -102.171875 C 90.785156 -102.171875 82.289062 -99.234375 76.15625 -93.359375 C 70.019531 -87.492188 66.953125 -78.515625 66.953125 -66.421875 L 66.953125 0 L 16.265625 0 L 16.265625 -144.59375 L 64.5625 -144.59375 Z M 64.5625 -127.25 "/></g></g></g><g fill="#000000" fill-opacity="1"><g transform="translate(668.744473, 562.013612)"><g><path d="M 88.828125 2.40625 C 73.359375 2.40625 59.398438 -0.796875 46.953125 -7.203125 C 34.503906 -13.609375 24.765625 -22.5 17.734375 -33.875 C 10.710938 -45.257812 7.203125 -58.15625 7.203125 -72.5625 C 7.203125 -86.789062 10.710938 -99.59375 17.734375 -110.96875 C 24.765625 -122.351562 34.457031 -131.203125 46.8125 -137.515625 C 59.175781 -143.828125 73.179688 -146.984375 88.828125 -146.984375 C 104.484375 -146.984375 118.535156 -143.828125 130.984375 -137.515625 C 143.429688 -131.203125 153.125 -122.398438 160.0625 -111.109375 C 167 -99.816406 170.46875 -86.96875 170.46875 -72.5625 C 170.46875 -58.15625 167 -45.257812 160.0625 -33.875 C 153.125 -22.5 143.429688 -13.609375 130.984375 -7.203125 C 118.535156 -0.796875 104.484375 2.40625 88.828125 2.40625 Z M 88.828125 -37.875 C 97.722656 -37.875 105.015625 -40.941406 110.703125 -47.078125 C 116.398438 -53.210938 119.25 -61.707031 119.25 -72.5625 C 119.25 -83.226562 116.398438 -91.582031 110.703125 -97.625 C 105.015625 -103.675781 97.722656 -106.703125 88.828125 -106.703125 C 79.941406 -106.703125 72.648438 -103.675781 66.953125 -97.625 C 61.265625 -91.582031 58.421875 -83.226562 58.421875 -72.5625 C 58.421875 -61.707031 61.265625 -53.210938 66.953125 -47.078125 C 72.648438 -40.941406 79.941406 -37.875 88.828125 -37.875 Z M 88.828125 -37.875 "/></g></g></g><g fill="#000000" fill-opacity="1"><g transform="translate(820.27045, 562.013612)"><g><path d="M 116.046875 -5.875 C 111.773438 -3.207031 106.570312 -1.160156 100.4375 0.265625 C 94.300781 1.691406 87.765625 2.40625 80.828125 2.40625 C 61.972656 2.40625 47.476562 -2.21875 37.34375 -11.46875 C 27.207031 -20.71875 22.140625 -34.5 22.140625 -52.8125 L 22.140625 -101.375 L 1.0625 -101.375 L 1.0625 -139.25 L 22.140625 -139.25 L 22.140625 -176.859375 L 72.828125 -176.859375 L 72.828125 -139.25 L 105.90625 -139.25 L 105.90625 -101.375 L 72.828125 -101.375 L 72.828125 -53.359375 C 72.828125 -48.191406 74.203125 -44.140625 76.953125 -41.203125 C 79.710938 -38.273438 83.40625 -36.8125 88.03125 -36.8125 C 93.894531 -36.8125 99.050781 -38.320312 103.5 -41.34375 Z M 116.046875 -5.875 "/></g></g></g><g fill="#000000" fill-opacity="1"><g transform="translate(913.373523, 562.013612)"><g><path d="M 88.828125 2.40625 C 73.359375 2.40625 59.398438 -0.796875 46.953125 -7.203125 C 34.503906 -13.609375 24.765625 -22.5 17.734375 -33.875 C 10.710938 -45.257812 7.203125 -58.15625 7.203125 -72.5625 C 7.203125 -86.789062 10.710938 -99.59375 17.734375 -110.96875 C 24.765625 -122.351562 34.457031 -131.203125 46.8125 -137.515625 C 59.175781 -143.828125 73.179688 -146.984375 88.828125 -146.984375 C 104.484375 -146.984375 118.535156 -143.828125 130.984375 -137.515625 C 143.429688 -131.203125 153.125 -122.398438 160.0625 -111.109375 C 167 -99.816406 170.46875 -86.96875 170.46875 -72.5625 C 170.46875 -58.15625 167 -45.257812 160.0625 -33.875 C 153.125 -22.5 143.429688 -13.609375 130.984375 -7.203125 C 118.535156 -0.796875 104.484375 2.40625 88.828125 2.40625 Z M 88.828125 -37.875 C 97.722656 -37.875 105.015625 -40.941406 110.703125 -47.078125 C 116.398438 -53.210938 119.25 -61.707031 119.25 -72.5625 C 119.25 -83.226562 116.398438 -91.582031 110.703125 -97.625 C 105.015625 -103.675781 97.722656 -106.703125 88.828125 -106.703125 C 79.941406 -106.703125 72.648438 -103.675781 66.953125 -97.625 C 61.265625 -91.582031 58.421875 -83.226562 58.421875 -72.5625 C 58.421875 -61.707031 61.265625 -53.210938 66.953125 -47.078125 C 72.648438 -40.941406 79.941406 -37.875 88.828125 -37.875 Z M 88.828125 -37.875 "/></g></g></g><g fill="#000000" fill-opacity="1"><g transform="translate(1064.899479, 562.013612)"><g><path d="M 90.171875 2.40625 C 74.160156 2.40625 59.84375 -0.796875 47.21875 -7.203125 C 34.59375 -13.609375 24.765625 -22.5 17.734375 -33.875 C 10.710938 -45.257812 7.203125 -58.15625 7.203125 -72.5625 C 7.203125 -86.96875 10.710938 -99.816406 17.734375 -111.109375 C 24.765625 -122.398438 34.59375 -131.203125 47.21875 -137.515625 C 59.84375 -143.828125 74.160156 -146.984375 90.171875 -146.984375 C 106.523438 -146.984375 120.660156 -143.46875 132.578125 -136.4375 C 144.492188 -129.414062 152.941406 -119.679688 157.921875 -107.234375 L 118.703125 -87.234375 C 112.128906 -100.210938 102.53125 -106.703125 89.90625 -106.703125 C 80.832031 -106.703125 73.316406 -103.675781 67.359375 -97.625 C 61.398438 -91.582031 58.421875 -83.226562 58.421875 -72.5625 C 58.421875 -61.707031 61.398438 -53.210938 67.359375 -47.078125 C 73.316406 -40.941406 80.832031 -37.875 89.90625 -37.875 C 102.53125 -37.875 112.128906 -44.367188 118.703125 -57.359375 L 157.921875 -37.34375 C 152.941406 -24.894531 144.492188 -15.15625 132.578125 -8.125 C 120.660156 -1.101562 106.523438 2.40625 90.171875 2.40625 Z M 90.171875 2.40625 "/></g></g></g><g fill="#000000" fill-opacity="1"><g transform="translate(1199.618908, 562.013612)"><g><path d="M 88.828125 2.40625 C 73.359375 2.40625 59.398438 -0.796875 46.953125 -7.203125 C 34.503906 -13.609375 24.765625 -22.5 17.734375 -33.875 C 10.710938 -45.257812 7.203125 -58.15625 7.203125 -72.5625 C 7.203125 -86.789062 10.710938 -99.59375 17.734375 -110.96875 C 24.765625 -122.351562 34.457031 -131.203125 46.8125 -137.515625 C 59.175781 -143.828125 73.179688 -146.984375 88.828125 -146.984375 C 104.484375 -146.984375 118.535156 -143.828125 130.984375 -137.515625 C 143.429688 -131.203125 153.125 -122.398438 160.0625 -111.109375 C 167 -99.816406 170.46875 -86.96875 170.46875 -72.5625 C 170.46875 -58.15625 167 -45.257812 160.0625 -33.875 C 153.125 -22.5 143.429688 -13.609375 130.984375 -7.203125 C 118.535156 -0.796875 104.484375 2.40625 88.828125 2.40625 Z M 88.828125 -37.875 C 97.722656 -37.875 105.015625 -40.941406 110.703125 -47.078125 C 116.398438 -53.210938 119.25 -61.707031 119.25 -72.5625 C 119.25 -83.226562 116.398438 -91.582031 110.703125 -97.625 C 105.015625 -103.675781 97.722656 -106.703125 88.828125 -106.703125 C 79.941406 -106.703125 72.648438 -103.675781 66.953125 -97.625 C 61.265625 -91.582031 58.421875 -83.226562 58.421875 -72.5625 C 58.421875 -61.707031 61.265625 -53.210938 66.953125 -47.078125 C 72.648438 -40.941406 79.941406 -37.875 88.828125 -37.875 Z M 88.828125 -37.875 "/></g></g></g><g fill="#000000" fill-opacity="1"><g transform="translate(1351.144906, 562.013612)"><g><path d="M 16.265625 -197.9375 L 66.953125 -197.9375 L 66.953125 0 L 16.265625 0 Z M 16.265625 -197.9375 "/></g></g></g><g fill="#000000" fill-opacity="1"><g transform="translate(406.241674, 371.333974)"><g><path d="M 100.296875 -186.734375 C 124.128906 -186.734375 142.800781 -181.039062 156.3125 -169.65625 C 169.832031 -158.28125 176.59375 -142.632812 176.59375 -122.71875 C 176.59375 -102.789062 169.832031 -87.179688 156.3125 -75.890625 C 142.800781 -64.597656 124.128906 -58.953125 100.296875 -58.953125 L 50.15625 -58.953125 L 50.15625 0 L 30.40625 0 L 30.40625 -186.734375 Z M 99.765625 -76.296875 C 118.265625 -76.296875 132.40625 -80.34375 142.1875 -88.4375 C 151.96875 -96.53125 156.859375 -107.957031 156.859375 -122.71875 C 156.859375 -137.832031 151.96875 -149.429688 142.1875 -157.515625 C 132.40625 -165.609375 118.265625 -169.65625 99.765625 -169.65625 L 50.15625 -169.65625 L 50.15625 -76.296875 Z M 99.765625 -76.296875 "/></g></g></g><g fill="#000000" fill-opacity="1"><g transform="translate(571.639801, 371.333974)"><g><path d="M 75.5 -141.390625 C 93.8125 -141.390625 107.859375 -136.804688 117.640625 -127.640625 C 127.421875 -118.484375 132.3125 -104.925781 132.3125 -86.96875 L 132.3125 0 L 114.171875 0 L 114.171875 -21.875 C 109.898438 -14.582031 103.628906 -8.890625 95.359375 -4.796875 C 87.097656 -0.710938 77.273438 1.328125 65.890625 1.328125 C 50.242188 1.328125 37.796875 -2.40625 28.546875 -9.875 C 19.296875 -17.34375 14.671875 -27.210938 14.671875 -39.484375 C 14.671875 -51.398438 18.984375 -61.003906 27.609375 -68.296875 C 36.234375 -75.585938 49.972656 -79.234375 68.828125 -79.234375 L 113.375 -79.234375 L 113.375 -87.765625 C 113.375 -99.859375 109.992188 -109.0625 103.234375 -115.375 C 96.472656 -121.6875 86.601562 -124.84375 73.625 -124.84375 C 64.726562 -124.84375 56.191406 -123.375 48.015625 -120.4375 C 39.835938 -117.507812 32.8125 -113.46875 26.9375 -108.3125 L 18.40625 -122.453125 C 25.519531 -128.492188 34.054688 -133.160156 44.015625 -136.453125 C 53.972656 -139.742188 64.46875 -141.390625 75.5 -141.390625 Z M 68.828125 -13.609375 C 79.492188 -13.609375 88.648438 -16.050781 96.296875 -20.9375 C 103.941406 -25.832031 109.632812 -32.90625 113.375 -42.15625 L 113.375 -65.09375 L 69.359375 -65.09375 C 45.347656 -65.09375 33.34375 -56.734375 33.34375 -40.015625 C 33.34375 -31.835938 36.453125 -25.390625 42.671875 -20.671875 C 48.898438 -15.960938 57.617188 -13.609375 68.828125 -13.609375 Z M 68.828125 -13.609375 "/></g></g></g><g fill="#000000" fill-opacity="1"><g transform="translate(702.8912, 371.333974)"><g><path d="M 144.3125 -140.3125 L 74.15625 16.8125 C 68.46875 29.96875 61.890625 39.300781 54.421875 44.8125 C 46.953125 50.332031 37.972656 53.09375 27.484375 53.09375 C 20.722656 53.09375 14.40625 52.023438 8.53125 49.890625 C 2.664062 47.753906 -2.398438 44.550781 -6.671875 40.28125 L 2.140625 26.140625 C 9.253906 33.253906 17.789062 36.8125 27.75 36.8125 C 34.144531 36.8125 39.609375 35.03125 44.140625 31.46875 C 48.679688 27.914062 52.910156 21.875 56.828125 13.34375 L 62.953125 -0.265625 L 0.265625 -140.3125 L 20 -140.3125 L 72.828125 -21.078125 L 125.640625 -140.3125 Z M 144.3125 -140.3125 "/></g></g></g><g fill="#000000" fill-opacity="1"><g transform="translate(821.337629, 371.333974)"><g><path d="M 44.546875 -112.84375 C 48.992188 -122.269531 55.617188 -129.382812 64.421875 -134.1875 C 73.222656 -138.988281 84.117188 -141.390625 97.109375 -141.390625 L 97.109375 -122.984375 L 92.5625 -123.25 C 77.800781 -123.25 66.238281 -118.710938 57.875 -109.640625 C 49.519531 -100.566406 45.34375 -87.851562 45.34375 -71.5 L 45.34375 0 L 26.40625 0 L 26.40625 -140.3125 L 44.546875 -140.3125 Z M 44.546875 -112.84375 "/></g></g></g><g fill="#000000" fill-opacity="1"><g transform="translate(902.169313, 371.333974)"><g><path d="M 83.765625 1.328125 C 70.242188 1.328125 58.054688 -1.738281 47.203125 -7.875 C 36.359375 -14.007812 27.820312 -22.5 21.59375 -33.34375 C 15.375 -44.195312 12.265625 -56.46875 12.265625 -70.15625 C 12.265625 -83.851562 15.375 -96.125 21.59375 -106.96875 C 27.820312 -117.820312 36.359375 -126.269531 47.203125 -132.3125 C 58.054688 -138.363281 70.242188 -141.390625 83.765625 -141.390625 C 97.273438 -141.390625 109.453125 -138.363281 120.296875 -132.3125 C 131.148438 -126.269531 139.644531 -117.820312 145.78125 -106.96875 C 151.914062 -96.125 154.984375 -83.851562 154.984375 -70.15625 C 154.984375 -56.46875 151.914062 -44.195312 145.78125 -33.34375 C 139.644531 -22.5 131.148438 -14.007812 120.296875 -7.875 C 109.453125 -1.738281 97.273438 1.328125 83.765625 1.328125 Z M 83.765625 -15.46875 C 93.722656 -15.46875 102.660156 -17.734375 110.578125 -22.265625 C 118.492188 -26.804688 124.671875 -33.253906 129.109375 -41.609375 C 133.554688 -49.972656 135.78125 -59.488281 135.78125 -70.15625 C 135.78125 -80.832031 133.554688 -90.347656 129.109375 -98.703125 C 124.671875 -107.054688 118.492188 -113.5 110.578125 -118.03125 C 102.660156 -122.570312 93.722656 -124.84375 83.765625 -124.84375 C 73.804688 -124.84375 64.867188 -122.570312 56.953125 -118.03125 C 49.035156 -113.5 42.8125 -107.054688 38.28125 -98.703125 C 33.75 -90.347656 31.484375 -80.832031 31.484375 -70.15625 C 31.484375 -59.488281 33.75 -49.972656 38.28125 -41.609375 C 42.8125 -33.253906 49.035156 -26.804688 56.953125 -22.265625 C 64.867188 -17.734375 73.804688 -15.46875 83.765625 -15.46875 Z M 83.765625 -15.46875 "/></g></g></g><g fill="#000000" fill-opacity="1"><g transform="translate(1043.291275, 371.333974)"><g><path d="M 26.40625 -197.9375 L 45.34375 -197.9375 L 45.34375 0 L 26.40625 0 Z M 26.40625 -197.9375 "/></g></g></g><g fill="#000000" fill-opacity="1"><g transform="translate(1088.909049, 371.333974)"><g><path d="M 26.40625 -197.9375 L 45.34375 -197.9375 L 45.34375 0 L 26.40625 0 Z M 26.40625 -197.9375 "/></g></g></g></svg>